<?xml version="1.0" encoding="utf-8"?>
<!-- Generator: Adobe Illustrator 19.0.0, SVG Export Plug-In . SVG Version: 6.00 Build 0)  -->
<svg version="1.1" id="Layer_1" xmlns="http://www.w3.org/2000/svg" xmlns:xlink="http://www.w3.org/1999/xlink" x="0px" y="0px"
	 viewBox="0 0 144.3 47.4" style="enable-background:new 0 0 144.3 47.4;" xml:space="preserve">
<style type="text/css">
	.st0{fill:#061734;}
	.st1{fill:#FFFFFF;}
</style>
<g>
	<rect class="st0" width="47.4" height="47.4"/>
	<rect x="49.5" class="st0" width="94.8" height="47.4"/>
	<path class="st1" d="M31.6,22l-1.5,4.2h5.6v3.6c-1,0.8-2.2,1.1-3.8,1.1c-4.2,0-7-2.9-7-7.3c0-4.2,2.9-7.3,7-7.3c2.7,0,5,1,5.4,1.2
		l0.3,0.1l1.5-4.1c-1.9-1.1-4.8-1.8-7-1.8c-4.2,0-7.9,2-10.2,5.1L20,12.1h-5L6.5,35.6h5.3l1.9-5.7h7.6l0,0c2.1,3.4,6,5.7,10.6,5.7
		c3.1,0,6-1.3,8.3-3.6l0.1-0.1V22H31.6z M17.5,17.8l2.6,7.9h-5L17.5,17.8z"/>
	<g>
		<path class="st1" d="M62.6,11.9l3.9,10.4h-2.2l-0.9-2.6h-3.7l-0.9,2.6h-2.2l3.9-10.4H62.6z M60.2,18h2.7l-1.4-4L60.2,18z"/>
		<path class="st1" d="M69.8,11.9l4.5,7.1h0l-0.1-2.8v-4.3h2.1v10.4h-2.1L69.6,15h0l0.1,2.4v4.8h-2.1V11.9H69.8z"/>
		<path class="st1" d="M78.1,22.2V11.9h3.7c1.1,0,1.9,0.3,2.5,0.7c1.7,1,2.3,2.7,2.3,4.5c0,1.8-0.7,3.6-2.3,4.5
			c-0.7,0.4-1.5,0.7-2.5,0.7H78.1z M80.2,20.3h1.2c0.7,0,1.3-0.1,2-0.5c0.9-0.5,1.2-1.7,1.2-2.8c0-1.2-0.3-2.2-1.2-2.8
			c-0.6-0.4-1.4-0.5-2-0.5h-1.2V20.3z"/>
		<path class="st1" d="M92.8,11.9c1.7,0,3.2,1.4,3.2,3.2c0,1.3-0.8,2.5-2,3l2.4,4.2h-2.4l-2.1-4h-1.7v4H88V11.9H92.8z M90.1,16.4
			h2.6c0.6,0,1.1-0.7,1.1-1.3c0-1.1-1-1.3-1.8-1.3h-2V16.4z"/>
		<path class="st1" d="M102.9,11.9l3.9,10.4h-2.2l-0.9-2.6H100l-0.9,2.6h-2.2l3.9-10.4H102.9z M100.5,18h2.7l-1.4-4L100.5,18z"/>
		<path class="st1" d="M107.8,22.3V11.9h3.7c1.1,0,1.9,0.3,2.5,0.7c1.7,1,2.3,2.7,2.3,4.5c0,1.8-0.7,3.6-2.3,4.5
			c-0.6,0.4-1.5,0.7-2.5,0.7H107.8z M109.8,20.3h1.2c0.7,0,1.3-0.1,2-0.5c1-0.5,1.2-1.7,1.2-2.8c0-1.2-0.3-2.2-1.2-2.8
			c-0.6-0.4-1.4-0.5-2-0.5h-1.2V20.3z"/>
		<path class="st1" d="M124.8,11.9v1.9h-5.3v2.4h4.3v1.9h-4.3v2.2h5.4v1.9h-7.4V11.9H124.8z"/>
		<path class="st1" d="M69.1,25.1v6.5c0,1.1,0.9,1.9,2.2,1.9c1.2,0,2.2-0.8,2.2-1.9v-6.5h2v6.4c0,2.3-1.5,3.9-4.2,3.9
			c-2.7,0-4.2-1.6-4.2-3.9v-6.4H69.1z"/>
		<path class="st1" d="M84.8,25.1v1.9h-3v8.4h-2.1v-8.4h-3v-1.9H84.8z"/>
		<path class="st1" d="M88.1,25.1v10.4H86V25.1H88.1z"/>
		<path class="st1" d="M97.4,25.1v1.9h-5.3v2.4h4.3v1.9h-4.3v2.2h5.4v1.9H90V25.1H97.4z"/>
		<path class="st1" d="M103.8,25.1c1.7,0,3.2,1.4,3.2,3.2c0,1.3-0.8,2.5-2,2.9l2.4,4.2H105l-2.1-4h-1.7v4h-2.1V25.1H103.8z
			 M101.2,29.6h2.6c0.6,0,1.1-0.7,1.1-1.3c0-1.1-1-1.3-1.8-1.3h-2V29.6z"/>
		<path class="st1" d="M113,25.1c1.7,0,3.2,1.4,3.2,3.2c0,1.3-0.8,2.5-2,2.9l2.4,4.2h-2.4l-2.1-4h-1.7v4h-2.1V25.1H113z M110.4,29.6
			h2.6c0.6,0,1.1-0.7,1.1-1.3c0-1.1-1-1.3-1.8-1.3h-2V29.6z"/>
		<path class="st1" d="M124.8,25.1v1.9h-5.3v2.4h4.3v1.9h-4.3v2.2h5.4v1.9h-7.4V25.1H124.8z"/>
		<path class="st1" d="M134.1,25.1v1.5l-5.4,7l2.1-0.1h3.3v1.9H126v-1.4l5.4-7.1c0,0-2.1,0-2.1,0H126v-1.9H134.1z"/>
		<path class="st1" d="M65.1,25.8l-0.8,1.5c-0.2-0.1-1.3-0.6-2.5-0.6c-2,0-3.3,1.5-3.3,3.5c0,2,1.2,3.5,3.3,3.5
			c0.8,0,1.4-0.2,1.9-0.6v-1.7h-2.6v-1.6h4.4v4.2c-1.1,1.1-2.4,1.6-3.7,1.6c-3.3,0-5.5-2.4-5.5-5.3c0-2.8,2.4-5.3,5.5-5.3
			C62.8,25,64.2,25.3,65.1,25.8z"/>
	</g>
</g>
</svg>
