<?xml version="1.0" encoding="UTF-8"?>
<svg width="244px" height="17px" viewBox="0 0 244 17" version="1.1" xmlns="http://www.w3.org/2000/svg" xmlns:xlink="http://www.w3.org/1999/xlink">
    <title>Logo</title>
    <g id="Symbols" stroke="none" stroke-width="1" fill="none" fill-rule="evenodd">
        <g id="nav-bar-laptop-slim-l-1440" transform="translate(-80.000000, -23.000000)" fill="#CC0000">
            <g id="logo/halliburton" transform="translate(80.000000, 23.000000)">
                <path d="M128.553153,0.183112682 L128.553153,9.78547371 C128.553153,11.9000567 129.329516,12.7266149 131.472652,12.7266149 L131.472652,12.7266149 L136.653833,12.7266149 C138.795807,12.7266149 139.573333,11.9000567 139.573333,9.78547371 L139.573333,9.78547371 L139.573333,0.183112682 L144.801003,0.183112682 L144.801003,10.8886851 C144.801003,15.0237436 142.611378,17 137.807919,17 L137.807919,17 L130.318566,17 C125.515107,17 123.325482,15.0237436 123.325482,10.8886851 L123.325482,10.8886851 L123.325482,0.183112682 L128.553153,0.183112682 Z M209.22582,-2.27631534e-14 C213.933978,-2.27631534e-14 216.737255,1.14856438 216.737255,6.01834128 L216.737255,6.01834128 L216.737255,10.979958 C216.737255,15.8508687 213.933978,16.9994331 209.22582,16.9994331 L209.22582,16.9994331 L200.84272,16.9994331 C196.132238,16.9994331 193.330123,15.8508687 193.330123,10.979958 L193.330123,10.979958 L193.330123,6.01834128 C193.330123,1.14856438 196.132238,-2.27631534e-14 200.84272,-2.27631534e-14 L200.84272,-2.27631534e-14 Z M5.22883244,0.183226065 L5.22883244,6.11086137 L16.2490123,6.11086137 L16.2490123,0.183226065 L21.4755203,0.183226065 L21.4755203,16.8153 L16.2490123,16.8153 L16.2490123,10.5214393 L5.22883244,10.5214393 L5.22883244,16.8153 L7.46170993e-14,16.8153 L7.46170993e-14,0.183226065 L5.22883244,0.183226065 Z M39.3693078,0.183226065 L48.7414583,16.8153 L42.9257042,16.8153 L41.3032437,13.8741588 L30.7061122,13.8741588 L29.1731427,16.8153 L23.3341442,16.8153 L32.5645037,0.183226065 L39.3693078,0.183226065 Z M55.8324013,0.183226065 L55.8324013,12.5430487 L67.5836182,12.5430487 L67.5836182,16.8153 L50.6058933,16.8153 L50.6058933,0.183226065 L55.8324013,0.183226065 Z M75.0265979,0.183226065 L75.0265979,12.5430487 L86.7778148,12.5430487 L86.7778148,16.8153 L69.7989277,16.8153 L69.7989277,0.183226065 L75.0265979,0.183226065 Z M94.5029818,0.183226065 L94.5029818,16.8153 L89.2753116,16.8153 L89.2753116,0.183226065 L94.5029818,0.183226065 Z M113.367456,0.183679594 C117.535181,0.183679594 119.55977,1.28689099 119.55977,4.5477707 C119.55977,7.39707206 118.500987,7.94811085 117.041237,8.36195685 L117.041237,8.36195685 L117.041237,8.43112015 C119.325001,8.70663954 120.172261,9.90055691 120.172261,12.4040418 C120.172261,16.0572248 117.959392,16.8157535 114.968997,16.8157535 L114.968997,16.8157535 L98.3201806,16.8157535 L98.3201806,0.183679594 Z M164.108516,0.183679594 C168.135612,0.183679594 169.218802,2.13612565 169.218802,5.1226198 L169.218802,5.1226198 L169.218802,6.17934438 C169.218802,8.40730983 168.699289,9.71687731 166.29814,10.2690499 L166.29814,10.2690499 L166.29814,10.3144029 C167.853192,10.5899223 169.147906,11.2566112 169.147906,13.9902624 L169.147906,13.9902624 L169.147906,16.8157535 L163.920236,16.8157535 L163.920236,14.8168206 C163.920236,13.0707306 163.403048,12.4970154 161.777101,12.4970154 L161.777101,12.4970154 L153.559036,12.4970154 L153.559036,16.8157535 L148.331365,16.8157535 L148.331365,0.183679594 Z M191.423732,0.183226065 L191.423732,4.31828459 L184.076171,4.31828459 L184.076171,16.8153 L178.847338,16.8153 L178.847338,4.31828459 L171.502101,4.31828459 L171.502101,0.183226065 L191.423732,0.183226065 Z M227.993831,0.183679594 L237.813436,12.266849 L237.859925,12.266849 L237.859925,0.183679594 L243.088757,0.183679594 L243.088757,16.8157535 L234.985752,16.8157535 L225.168471,4.7314503 L225.12082,4.7314503 L225.12082,16.8157535 L219.89315,16.8157535 L219.89315,0.183679594 L227.993831,0.183679594 Z M112.920001,10.2214293 L103.547851,10.2214293 L103.547851,12.8178878 L112.920001,12.8178878 C114.050842,12.8178878 114.803962,12.5650449 114.803962,11.6001601 C114.803962,10.4742722 114.050842,10.2214293 112.920001,10.2214293 L112.920001,10.2214293 Z M208.094979,4.27225131 L201.971237,4.27225131 C199.216773,4.27225131 198.699584,5.53533198 198.699584,7.60342815 L198.699584,7.60342815 L198.699584,9.39600494 C198.699584,11.8065162 199.216773,12.726048 201.688817,12.726048 L201.688817,12.726048 L208.377399,12.726048 C210.850605,12.726048 211.367794,11.8065162 211.367794,9.39600494 L211.367794,9.39600494 L211.367794,7.60342815 C211.367794,5.53533198 210.850605,4.27225131 208.094979,4.27225131 L208.094979,4.27225131 Z M35.9570269,4.04389902 L32.6598058,10.2912729 L39.3483879,10.2912729 L35.9570269,4.04389902 Z M161.730612,4.31873812 L153.559036,4.31873812 L153.559036,8.36195685 L162.201311,8.36195685 C163.614572,8.36195685 164.13176,7.81091806 164.13176,6.61586688 L164.13176,6.61586688 L164.13176,6.06482809 C164.13176,4.59425751 163.378641,4.31873812 161.730612,4.31873812 L161.730612,4.31873812 Z M112.802617,4.18041151 L103.547851,4.18041151 L103.547851,6.77686998 L112.802617,6.77686998 C113.76726,6.77686998 114.333262,6.43218728 114.333262,5.48997899 C114.333262,4.52509421 113.76726,4.18041151 112.802617,4.18041151 L112.802617,4.18041151 Z"></path>
            </g>
        </g>
    </g>
</svg>