<?xml version="1.0" encoding="UTF-8" standalone="no"?>
<!-- Created with Inkscape (http://www.inkscape.org/) -->
<!-- ClipArt by Arvin61r58 (http://openclipart.org/user-detail/Arvin61r58) -->
<svg
   xmlns:dc="http://purl.org/dc/elements/1.1/"
   xmlns:cc="http://creativecommons.org/ns#"
   xmlns:rdf="http://www.w3.org/1999/02/22-rdf-syntax-ns#"
   xmlns:svg="http://www.w3.org/2000/svg"
   xmlns="http://www.w3.org/2000/svg"
   version="1.1"
   id="svg4156"
   viewBox="0 0 990 765"
   height="8.5in"
   width="11in">
  <title
     id="title4239">Safety First</title>
  <defs
     id="defs4158" />
  <metadata
     id="metadata4161">
    <rdf:RDF>
      <cc:Work
         rdf:about="">
        <dc:format>image/svg+xml</dc:format>
        <dc:type
           rdf:resource="http://purl.org/dc/dcmitype/StillImage" />
        <dc:title>Safety First</dc:title>
        <dc:creator>
          <cc:Agent>
            <dc:title>Arvin61r58</dc:title>
          </cc:Agent>
        </dc:creator>
        <dc:publisher>
          <cc:Agent>
            <dc:title>Openclipart.org</dc:title>
          </cc:Agent>
        </dc:publisher>
        <dc:identifier>https://openclipart.org/</dc:identifier>
        <dc:source>https://openclipart.org/user-detail/Arvin61r58</dc:source>
        <dc:subject>
          <rdf:Bag>
            <rdf:li>safety</rdf:li>
            <rdf:li>construction</rdf:li>
            <rdf:li>sign</rdf:li>
            <rdf:li>business</rdf:li>
            <rdf:li>manufacturing</rdf:li>
            <rdf:li></rdf:li>
          </rdf:Bag>
        </dc:subject>
        <dc:description>Safety First sign</dc:description>
        <cc:license
           rdf:resource="http://creativecommons.org/publicdomain/zero/1.0/" />
      </cc:Work>
      <cc:License
         rdf:about="http://creativecommons.org/publicdomain/zero/1.0/">
        <cc:permits
           rdf:resource="http://creativecommons.org/ns#Reproduction" />
        <cc:permits
           rdf:resource="http://creativecommons.org/ns#Distribution" />
        <cc:permits
           rdf:resource="http://creativecommons.org/ns#DerivativeWorks" />
      </cc:License>
    </rdf:RDF>
  </metadata>
  <g
     transform="translate(0,-287.3622)"
     id="layer1">
    <flowRoot
       style="opacity:1;fill-opacity:1;-inkscape-font-specification:Cairo;font-weight:normal;font-style:normal;font-stretch:normal;font-variant:normal;font-size:125px;text-anchor:middle;text-align:center;writing-mode:lr;line-height:125%;font-family:Cairo;stroke:none;fill:#000000;stroke-width:10;stroke-miterlimit:4;stroke-dasharray:none;stroke-opacity:1;stroke-linecap:butt;"
       id="flowRoot4772"
       xml:space="preserve"><flowRegion
         id="flowRegion4774"><rect
           style="-inkscape-font-specification:Cairo;font-family:Cairo;font-weight:normal;font-style:normal;font-stretch:normal;font-variant:normal;"
           y="-25.345493"
           x="-300.67493"
           height="199.73405"
           width="238.39226"
           id="rect4776" /></flowRegion><flowPara
         id="flowPara4778" /></flowRoot>    <text
       id="text4791"
       y="670.0755"
       x="624.9743"
       style="font-style:normal;font-variant:normal;font-weight:normal;font-stretch:normal;font-size:45px;line-height:125%;font-family:sans-serif;-inkscape-font-specification:sans-serif;text-align:center;writing-mode:lr-tb;text-anchor:middle;opacity:1;fill:#000000;fill-opacity:1;stroke:none;stroke-width:2;stroke-linecap:butt;stroke-miterlimit:4;stroke-dasharray:none;stroke-opacity:1"
       xml:space="preserve"><tspan
         y="670.0755"
         x="624.9743"
         id="tspan4793" /></text>
    <flowRoot
       style="opacity:1;fill-opacity:1;-inkscape-font-specification:sans-serif;font-weight:normal;font-style:normal;font-stretch:normal;font-variant:normal;font-size:45px;text-anchor:middle;text-align:center;writing-mode:lr;line-height:125%;font-family:sans-serif;stroke:none;fill:#000000;stroke-width:2;stroke-miterlimit:4;stroke-dasharray:none;stroke-opacity:1;stroke-linecap:butt"
       id="flowRoot4803"
       xml:space="preserve"><flowRegion
         id="flowRegion4805"><rect
           y="311.83994"
           x="633.565"
           height="90.202477"
           width="137.45139"
           id="rect4807" /></flowRegion><flowPara
         id="flowPara4809" /></flowRoot>    <g
       transform="matrix(2.5540863,0,0,2.5866873,-125.49586,-1478.8124)"
       id="g4768">
      <path
         style="fill:#fffdfc;stroke:#333333;stroke-width:1.94528234"
         d="m 90.855592,909.0927 c 0,0 -8.110996,-6.824 -10.625996,-10.134 -4.664,-6.14599 -10.132,-14.70099 -12.473,-21.85399 -2.67,-8.163 -3.941,-19.84 -3.228,-28.385 0.667,-7.975 2.972,-18.929 7.389,-25.682 4.81,-7.351 14.721996,-14.844 22.631996,-18.92 7.991998,-4.121 20.080998,-6.985 29.096998,-7.663 8.751,-0.651 20.594,1.008 29.098,3.158 9.73801,2.462 22.72501,7.288 30.47901,13.515 18.718,15.95 18.518,36.752 19.859,59.027 1.336,5.29 5.937,11.374 9.236,15.771 1.454,1.929 4.453,3.711 5.543,5.853 0.694,1.35499 1.519,3.55999 0.922,4.96099 -0.832,1.97 -4.086,3.004 -5.998,4.049 -1.188,0.65 -3.494,0.642 -4.16,1.802 -1.572,2.739 2.605,7.172 0.695,9.688 -1.007,1.318 -4.848,1.578 -4.848,1.578 0,0 4.755,5.879 2.771,5.859 -1.106,-0.018 -4.474,5.451 -3.694,7.208 0,0 2.267,5.265 2.304,7.654 0.037,2.657 -0.43,6.637 -2.304,8.562 -1.911,1.953 -6.118,1.997 -8.779,2.703 -4.252,1.123 -11.11,0.463 -15.7,1.579 -3.045,0.74 -7.051,2.193 -9.703,3.826 -1.91,1.178 -4.617,2.953 -5.541,4.96 -2.90801,6.28 -0.539,3.627 -1.381,10.478 l -75.559008,-0.9635 c 6.419,-12.2125 4.81,-45.0165 3.969,-58.6295 z"
         id="imagebot_5" />
      <path
         style="fill:#919899;stroke:#454a4b;stroke-width:1.16716933"
         d="m 123.26282,902.19528 c 0,0 -3.314,2.50739 -4.997,2.96856 -1.512,0.41396 -3.772,0.56736 -5.231,0 -1.215,-0.47887 -3.177,-2.96856 -3.177,-2.96856 -13.098998,3.23798 -19.446998,-7.90468 -20.238998,-14.58024 0,0 -4.582008,-1.15635 -6.590008,-1.36382 -5.689,-0.60473 -8.607,-15.0955 -8.642,-15.95293 -1.072,-25.56066 2.457,-38.17334 19.778008,-54.90995 7.535998,-7.29012 18.887998,-11.06203 35.921998,-11.62054 10.74,-0.353 19.733,0.12586 27.053,3.87024 0,0 14.99801,6.28028 20.46301,10.48385 5.248,4.03248 10.921,10.63725 14.783,16.40327 5.222,11.41307 3.16,28.80848 -9.104,30.75736 l -14.312,2.28222 c -4.07,0.69617 5.41,8.31865 -5.69001,15.04043 -9.201,9.29309 -20.031,0.97346 -20.913,1.82302 0,0 -3.943,5.57625 -5.23,8.20163 -1.242,2.54378 -2.484,6.14361 -3.188,8.88699 -0.541,2.13964 0.783,6.18884 -1.134,7.28914 -4.646,2.66177 -9.552,0.90266 -9.552,-0.22517 l 0,-6.37173 z"
         id="imagebot_4" />
    </g>
    <rect
       rx="100"
       ry="99.999992"
       y="310.30539"
       x="22.5"
       height="225"
       width="945"
       id="rect4716"
       style="opacity:1;fill:#009900;fill-opacity:1;stroke:none;stroke-width:10;stroke-linecap:butt;stroke-miterlimit:4;stroke-dasharray:none;stroke-opacity:1" />
    <g
       id="g5289">
      <path
         style="font-style:normal;font-variant:normal;font-weight:normal;font-stretch:normal;font-size:medium;line-height:125%;font-family:sans-serif;-inkscape-font-specification:sans-serif;text-align:center;writing-mode:lr-tb;text-anchor:middle;fill:#000000;fill-opacity:1;stroke:none;stroke-width:10;stroke-linecap:butt;stroke-miterlimit:4;stroke-dasharray:none;stroke-opacity:1"
         id="path4746"
         d="m 126.34766,380.17232 0,12.02393 q -7.01905,-3.35693 -13.24463,-5.00488 -6.22559,-1.64795 -12.02393,-1.64795 -10.070799,0 -15.563963,3.90625 -5.432129,3.90625 -5.432129,11.1084 0,6.04248 3.601074,9.15527 3.662109,3.05176 13.793945,4.94385 l 7.446293,1.52588 q 13.79394,2.62451 20.3247,9.27734 6.5918,6.5918 6.5918,17.70019 0,13.24463 -8.91113,20.08057 -8.8501,6.83594 -26.000979,6.83594 -6.469727,0 -13.793945,-1.46485 -7.263184,-1.46484 -15.075684,-4.33349 l 0,-12.69531 q 7.507324,4.21142 14.709473,6.34765 7.202148,2.13623 14.160156,2.13623 10.559079,0 16.296389,-4.15039 5.7373,-4.15039 5.7373,-11.84082 0,-6.71387 -4.15039,-10.49804 -4.08935,-3.78418 -13.48877,-5.67627 l -7.507322,-1.46485 q -13.793945,-2.74658 -19.958496,-8.60596 -6.164551,-5.85937 -6.164551,-16.29638 0,-12.08496 8.483887,-19.04297 8.544922,-6.95801 23.498535,-6.95801 6.408687,0 13.061527,1.15967 6.65283,1.15967 13.61084,3.479 z" />
      <path
         style="font-style:normal;font-variant:normal;font-weight:normal;font-stretch:normal;font-size:medium;line-height:125%;font-family:sans-serif;-inkscape-font-specification:sans-serif;text-align:center;writing-mode:lr-tb;text-anchor:middle;fill:#000000;fill-opacity:1;stroke:none;stroke-width:10;stroke-linecap:butt;stroke-miterlimit:4;stroke-dasharray:none;stroke-opacity:1"
         id="path4748"
         d="m 183.96484,389.3276 -16.72363,45.34912 33.5083,0 -16.78467,-45.34912 z m -6.958,-12.146 13.97705,0 34.729,91.12549 -12.81738,0 -8.30078,-23.37647 -41.07666,0 -8.30078,23.37647 -13.00049,0 34.79004,-91.12549 z" />
      <path
         style="font-style:normal;font-variant:normal;font-weight:normal;font-stretch:normal;font-size:medium;line-height:125%;font-family:sans-serif;-inkscape-font-specification:sans-serif;text-align:center;writing-mode:lr-tb;text-anchor:middle;fill:#000000;fill-opacity:1;stroke:none;stroke-width:10;stroke-linecap:butt;stroke-miterlimit:4;stroke-dasharray:none;stroke-opacity:1"
         id="path4750"
         d="m 238.95752,377.1816 52.36816,0 0,10.37598 -40.03906,0 0,26.85547 36.13281,0 0,10.37597 -36.13281,0 0,43.51807 -12.3291,0 0,-91.12549 z" />
      <path
         style="font-style:normal;font-variant:normal;font-weight:normal;font-stretch:normal;font-size:medium;line-height:125%;font-family:sans-serif;-inkscape-font-specification:sans-serif;text-align:center;writing-mode:lr-tb;text-anchor:middle;fill:#000000;fill-opacity:1;stroke:none;stroke-width:10;stroke-linecap:butt;stroke-miterlimit:4;stroke-dasharray:none;stroke-opacity:1"
         id="path4752"
         d="m 310.979,377.1816 57.61719,0 0,10.37598 -45.28808,0 0,26.97754 43.39599,0 0,10.37597 -43.39599,0 0,33.02002 46.38671,0 0,10.37598 -58.71582,0 0,-91.12549 z" />
      <path
         style="font-style:normal;font-variant:normal;font-weight:normal;font-stretch:normal;font-size:medium;line-height:125%;font-family:sans-serif;-inkscape-font-specification:sans-serif;text-align:center;writing-mode:lr-tb;text-anchor:middle;fill:#000000;fill-opacity:1;stroke:none;stroke-width:10;stroke-linecap:butt;stroke-miterlimit:4;stroke-dasharray:none;stroke-opacity:1"
         id="path4754"
         d="m 377.44629,377.1816 77.0874,0 0,10.37598 -32.34863,0 0,80.74951 -12.39014,0 0,-80.74951 -32.34863,0 0,-10.37598 z" />
      <path
         style="font-style:normal;font-variant:normal;font-weight:normal;font-stretch:normal;font-size:medium;line-height:125%;font-family:sans-serif;-inkscape-font-specification:sans-serif;text-align:center;writing-mode:lr-tb;text-anchor:middle;fill:#000000;fill-opacity:1;stroke:none;stroke-width:10;stroke-linecap:butt;stroke-miterlimit:4;stroke-dasharray:none;stroke-opacity:1"
         id="path4756"
         d="m 460.42741,377.1816 13.24463,0 25.26856,37.47559 25.08545,-37.47559 13.24463,0 -32.22657,47.72949 0,43.396 -12.39013,0 0,-43.396 -32.22657,-47.72949 z" />
      <path
         style="font-style:normal;font-variant:normal;font-weight:normal;font-stretch:normal;font-size:medium;line-height:125%;font-family:sans-serif;-inkscape-font-specification:sans-serif;text-align:center;writing-mode:lr-tb;text-anchor:middle;fill:#000000;fill-opacity:1;stroke:none;stroke-width:10;stroke-linecap:butt;stroke-miterlimit:4;stroke-dasharray:none;stroke-opacity:1"
         id="path4758"
         d="m 582.70752,377.1816 52.36816,0 0,10.37598 -40.03906,0 0,26.85547 36.13281,0 0,10.37597 -36.13281,0 0,43.51807 -12.3291,0 0,-91.12549 z" />
      <path
         style="font-style:normal;font-variant:normal;font-weight:normal;font-stretch:normal;font-size:medium;line-height:125%;font-family:sans-serif;-inkscape-font-specification:sans-serif;text-align:center;writing-mode:lr-tb;text-anchor:middle;fill:#000000;fill-opacity:1;stroke:none;stroke-width:10;stroke-linecap:butt;stroke-miterlimit:4;stroke-dasharray:none;stroke-opacity:1"
         id="path4760"
         d="m 654.729,377.1816 12.32911,0 0,91.12549 -12.32911,0 0,-91.12549 z" />
      <path
         style="font-style:normal;font-variant:normal;font-weight:normal;font-stretch:normal;font-size:medium;line-height:125%;font-family:sans-serif;-inkscape-font-specification:sans-serif;text-align:center;writing-mode:lr-tb;text-anchor:middle;fill:#000000;fill-opacity:1;stroke:none;stroke-width:10;stroke-linecap:butt;stroke-miterlimit:4;stroke-dasharray:none;stroke-opacity:1"
         id="path4762"
         d="m 734.80713,425.58248 q 3.96728,1.34277 7.69043,5.7373 3.78418,4.39454 7.56836,12.08497 l 12.5122,24.90234 -13.24462,0 -11.65772,-23.37647 q -4.5166,-9.15527 -8.78906,-12.14599 -4.21143,-2.99072 -11.53565,-2.99072 l -13.42773,0 0,38.51318 -12.3291,0 0,-91.12549 27.83203,0 q 15.625,0 23.31543,6.53076 7.69043,6.53076 7.69043,19.71436 0,8.60595 -4.02832,14.28222 -3.96729,5.67627 -11.59668,7.87354 z m -30.88379,-38.26904 0,32.34863 15.50293,0 q 8.91113,0 13.42773,-4.08936 4.57764,-4.15039 4.57764,-12.14599 0,-7.99561 -4.57764,-12.02393 -4.5166,-4.08935 -13.42773,-4.08935 l -15.50293,0 z" />
      <path
         style="font-style:normal;font-variant:normal;font-weight:normal;font-stretch:normal;font-size:medium;line-height:125%;font-family:sans-serif;-inkscape-font-specification:sans-serif;text-align:center;writing-mode:lr-tb;text-anchor:middle;fill:#000000;fill-opacity:1;stroke:none;stroke-width:10;stroke-linecap:butt;stroke-miterlimit:4;stroke-dasharray:none;stroke-opacity:1"
         id="path4764"
         d="m 833.13477,380.17232 0,12.02393 q -7.01905,-3.35693 -13.24463,-5.00488 -6.22559,-1.64795 -12.02393,-1.64795 -10.0708,0 -15.56396,3.90625 -5.43213,3.90625 -5.43213,11.1084 0,6.04248 3.60107,9.15527 3.66211,3.05176 13.79395,4.94385 l 7.44629,1.52588 q 13.79394,2.62451 20.3247,9.27734 6.5918,6.5918 6.5918,17.70019 0,13.24463 -8.91113,20.08057 -8.8501,6.83594 -26.00098,6.83594 -6.46973,0 -13.79395,-1.46485 -7.26318,-1.46484 -15.07568,-4.33349 l 0,-12.69531 q 7.50733,4.21142 14.70947,6.34765 7.20215,2.13623 14.16016,2.13623 10.55908,0 16.29639,-4.15039 5.7373,-4.15039 5.7373,-11.84082 0,-6.71387 -4.15039,-10.49804 -4.08935,-3.78418 -13.48877,-5.67627 l -7.50732,-1.46485 q -13.79395,-2.74658 -19.9585,-8.60596 -6.16455,-5.85937 -6.16455,-16.29638 0,-12.08496 8.48389,-19.04297 8.54492,-6.95801 23.49853,-6.95801 6.40869,0 13.06153,1.15967 6.65283,1.15967 13.61084,3.479 z" />
      <path
         style="font-style:normal;font-variant:normal;font-weight:normal;font-stretch:normal;font-size:medium;line-height:125%;font-family:sans-serif;-inkscape-font-specification:sans-serif;text-align:center;writing-mode:lr-tb;text-anchor:middle;fill:#000000;fill-opacity:1;stroke:none;stroke-width:10;stroke-linecap:butt;stroke-miterlimit:4;stroke-dasharray:none;stroke-opacity:1"
         id="path4766"
         d="m 845.21973,377.1816 77.0874,0 0,10.37598 -32.34863,0 0,80.74951 -12.39014,0 0,-80.74951 -32.34863,0 0,-10.37598 z" />
    </g>
    <g
       id="g4954">
      <g
         style="font-style:normal;font-variant:normal;font-weight:normal;font-stretch:normal;font-size:125px;line-height:125%;font-family:Cairo;-inkscape-font-specification:Cairo;text-align:center;writing-mode:lr-tb;text-anchor:middle;opacity:1;fill:#000000;fill-opacity:1;stroke:none;stroke-width:0.9873144;stroke-linecap:butt;stroke-miterlimit:4;stroke-dasharray:none;stroke-opacity:1"
         id="text4780"
         transform="matrix(-1.5106565,0,0,1.5279384,303.95404,235.32397)">
        <path
           d="m -265.36589,315.70865 0,-78.00293 16.47949,0 0,5.24902 14.28223,0 0,5.98145 c 6.71387,-4.23177 11.33219,-7.08008 13.85498,-8.54492 2.56347,-1.50553 5.53385,-2.86865 8.91113,-4.08936 3.41797,-1.26139 7.44629,-2.21761 12.08496,-2.86865 4.63867,-0.65104 10.51839,-0.97656 17.63916,-0.97656 5.73731,0 10.23356,0.1831 13.48877,0.54931 3.2959,0.32552 7.10043,0.85449 11.41358,1.58692 4.35384,0.73242 8.30078,1.26139 11.84082,1.58691 3.62142,0.32552 7.16146,0.89518 10.62011,1.70898 3.49935,0.81381 7.42595,1.85141 11.77979,3.1128 4.35384,1.2207 7.9956,2.11588 10.92529,2.68554 2.97038,0.52897 6.10352,0.79346 9.39942,0.79346 1.58691,0 2.726235,0.8138 3.417965,2.44141 0.732422,1.6276 1.098633,3.56038 1.098633,5.79834 0,2.03451 -0.549317,3.9266 -1.64795,5.67627 -1.098628,1.70898 -2.543128,2.56347 -4.333498,2.56347 -2.56347,0 -6.34765,0.12207 -11.35254,0.36621 -5.00488,0.20345 -9.13492,0.42725 -12.39013,0.67139 -3.25521,0.20345 -5.5949,0.36621 -7.01905,0.48828 0,0.69173 -0.12207,1.64795 -0.36621,2.86865 -0.24414,1.22071 -0.75277,2.13624 -1.52588,2.74659 -0.36621,0.32552 -0.75092,1.15959 -1.48335,1.36304 -0.55881,0.50605 -3.30581,1.35172 -3.73585,1.34664 0.16276,0 2.10641,0.13862 2.10641,3.63797 0,4.72005 -0.59001,8.34147 -1.77002,10.86426 -0.36621,0.73242 -0.83415,1.24105 -1.40381,1.52588 -0.52897,0.24414 -1.64794,0.67139 -3.35693,1.28174 -1.70899,0.61035 -2.86865,1.18001 -3.479,1.70898 -0.40691,0.28483 -0.61036,0.71208 -0.61036,1.28174 0,0.20345 0.0407,0.50863 0.12207,0.91553 0.0814,0.4069 0.12207,0.71208 0.12207,0.91553 0,0.44759 -0.12207,0.79345 -0.36621,1.03759 -0.69173,0.73243 -1.68863,1.38347 -2.99072,1.95313 -1.30208,0.52897 -2.29899,0.87484 -2.99072,1.0376 0.0814,0.36621 0.1831,0.9969 0.30517,1.89209 0.12207,0.85449 0.18311,1.85139 0.18311,2.99072 0,1.99381 -0.30518,3.62142 -0.91553,4.88281 -1.30208,2.889 -4.84212,4.3335 -10.62012,4.3335 -1.95312,0 -4.00797,-0.16276 -6.16455,-0.48828 -2.15657,-0.36621 -3.68245,-0.65105 -4.57763,-0.8545 -0.24414,0.65105 -0.65104,1.50554 -1.22071,2.56348 -0.52897,1.05794 -1.11897,1.68864 -1.77002,1.89209 -4.19108,1.34277 -8.23974,2.01416 -12.14599,2.01416 -1.66829,0 -3.23486,-0.10173 -4.69971,-0.30518 -1.46484,-0.16276 -3.76383,-0.52897 -6.89697,-1.09863 -3.13314,-0.61035 -5.71696,-1.05794 -7.75147,-1.34277 -0.93587,-0.16276 -1.56656,-0.38656 -1.89209,-0.67139 -0.32552,-0.32552 -0.71207,-0.79346 -1.15966,-1.40381 -0.40691,-0.61035 -0.89519,-1.03759 -1.46485,-1.28174 -0.97656,-0.48828 -2.13623,-0.73242 -3.479,-0.73242 -0.52897,0 -0.95622,0.0203 -1.28174,0.061 -0.32552,0 -0.69173,0.0203 -1.09863,0.061 -1.13933,0 -2.17693,-0.1831 -3.1128,-0.54931 -1.87174,-0.69173 -3.33658,-1.30209 -4.39453,-1.83106 -1.05794,-0.56966 -2.09554,-1.4445 -3.11279,-2.62451 l 0,4.45557 -14.28223,0 0,6.7749 -17.21191,0 z m 15.99121,-10.49805 10.62012,0 0,-57.37305 -10.49805,0 z m 16.23535,-49.1333 0,43.15186 c 1.74967,0.20345 3.37728,0.8138 4.88281,1.83105 0.52897,0.32552 1.11898,0.93587 1.77002,1.83106 0.69173,0.85449 1.34278,1.50553 1.95313,1.95312 1.01725,0.65104 2.19727,0.97656 3.54004,0.97656 0.65104,0 1.66829,-0.12207 3.05176,-0.36621 1.38346,-0.24414 2.40071,-0.36621 3.05175,-0.36621 1.26139,0 2.42106,0.4069 3.47901,1.2207 0.24414,0.20345 0.6307,0.87484 1.15967,2.01416 0.52897,1.09863 1.15966,1.68864 1.89209,1.77002 1.99381,0.28483 3.92659,0.50863 5.79834,0.67139 1.91243,0.12207 3.56038,0.18311 4.94384,0.18311 1.13933,-0.0407 2.17693,-0.061 3.1128,-0.061 0.93587,-0.0407 2.31933,-0.061 4.15039,-0.061 1.42415,-0.0814 2.54313,-0.20345 3.35693,-0.36621 0.85449,-0.16277 1.70899,-0.34587 2.56348,-0.54932 0.85449,-0.24414 1.87174,-0.56966 3.05175,-0.97656 -1.09863,-1.30209 -1.99381,-2.0752 -2.68554,-2.31934 -0.69173,-0.24414 -1.79037,-0.48828 -3.2959,-0.73242 -1.46485,-0.24414 -2.60417,-0.71208 -3.41797,-1.40381 -1.13932,-0.97656 -1.99381,-1.72933 -2.56348,-2.2583 -0.52897,-0.52897 -1.09863,-1.18002 -1.70898,-1.95313 -0.61035,-0.77311 -1.09863,-1.64794 -1.46484,-2.62451 -0.36621,-0.97656 -0.56967,-1.95312 -0.61036,-2.92969 0,-1.09863 0.16276,-1.91243 0.48829,-2.4414 0.32552,-0.56966 1.01725,-1.60726 2.07519,-3.11279 1.05794,-1.54623 1.70898,-2.82797 1.95313,-3.84522 l 0,-3.84521 c 0,-0.93587 0.24414,-1.64795 0.73242,-2.13623 1.54622,-1.46485 2.72623,-2.76693 3.54004,-3.90625 0.85449,-1.18001 1.42415,-2.62451 1.70898,-4.3335 0,-1.50553 -0.4069,-2.78727 -1.2207,-3.84522 -0.77311,-1.05794 -1.91244,-2.42106 -3.41797,-4.08935 -1.50553,-1.66829 -2.2583,-2.82796 -2.2583,-3.479 0,-0.56967 0.42725,-1.01726 1.28174,-1.34278 0.32552,-0.16276 0.8138,-0.24414 1.46484,-0.24414 0.97656,0 2.27864,0.71208 3.90625,2.13623 1.66829,1.38347 2.99072,2.2583 3.96729,2.62451 1.74967,0.56967 3.96728,0.8545 6.65283,0.8545 l 3.72314,0 c 1.91243,0 3.49935,0.20345 4.76074,0.61035 1.26139,0.4069 2.33968,1.15967 3.23487,2.2583 1.87174,2.07519 3.92659,3.11279 6.16455,3.11279 0.61035,0 1.62761,-0.12207 3.05176,-0.36621 1.42415,-0.24414 2.60417,-0.4069 3.54004,-0.48828 1.46484,0 2.64485,0.0203 3.54003,0.061 0.93587,0 1.93278,0.0203 2.99073,0.061 1.70898,0 3.0721,-0.4069 4.08935,-1.2207 1.01725,-0.81381 1.60726,-2.31934 1.77002,-4.51661 0,-1.6276 -0.4069,-2.68554 -1.2207,-3.17382 -0.77311,-0.48829 -2.05485,-0.87484 -3.84522,-1.15967 -1.79036,-0.32552 -2.97037,-0.6307 -3.54004,-0.91553 -1.74967,-1.01725 -3.60107,-1.93278 -5.55419,-2.74658 -1.95313,-0.8138 -4.1097,-1.64795 -6.46973,-2.50244 -1.74967,-0.73243 -3.39762,-1.91244 -4.94385,-3.54004 -1.54622,-1.62761 -2.31933,-3.07211 -2.31933,-4.3335 0,-1.01725 0.42724,-1.77002 1.28173,-2.2583 0.44759,-0.32552 0.93588,-0.48828 1.46485,-0.48828 0.61035,0 1.2207,0.20345 1.83105,0.61035 0.61035,0.4069 1.18002,0.89518 1.70899,1.46485 0.56966,0.56966 1.18001,1.15967 1.83105,1.77002 0.65104,0.61035 1.36312,1.11897 2.13623,1.52587 0.65104,0.24414 1.60726,0.54932 2.86865,0.91553 1.30209,0.32552 2.23796,0.65104 2.80762,0.97656 0.65104,0.28483 1.48519,0.69174 2.50244,1.22071 1.05795,0.52897 1.81071,0.89518 2.2583,1.09863 0.48829,0.20345 1.38347,0.54932 2.68555,1.0376 0.93587,0.32552 2.17692,0.59 3.72314,0.79345 1.58692,0.16277 2.66521,0.30518 3.23487,0.42725 0.56966,0.0814 1.26139,0.42725 2.07519,1.0376 1.22071,0.89518 1.99382,1.46484 2.31934,1.70898 0.32552,0.20345 0.67139,0.38656 1.0376,0.54932 0.4069,0.16276 0.87484,0.24414 1.40381,0.24414 -0.0407,0 1.119,-0.0814 3.479,-0.24414 2.36003,-0.20345 5.35075,-0.30518 8.97217,-0.30518 l 3.17383,0 c 3.45865,0 6.28661,-0.26448 8.48388,-0.79345 2.23796,-0.52897 3.35694,-1.6683 3.35694,-3.41797 0,-1.74967 -0.59001,-2.86865 -1.77002,-3.35694 -1.18001,-0.52897 -3.01107,-0.79345 -5.49317,-0.79345 l -3.96728,0 c -1.66829,0 -3.23486,-0.0814 -4.69971,-0.24414 -1.42415,-0.20345 -2.72624,-0.61036 -3.90625,-1.22071 -3.25521,-1.83105 -5.71696,-2.92969 -7.38525,-3.2959 -1.6683,-0.4069 -4.3335,-0.69173 -7.99561,-0.85449 -4.23177,-0.12207 -8.15837,-0.8138 -11.77978,-2.07519 -3.58073,-1.26139 -6.95801,-2.19727 -10.13184,-2.80762 -3.17383,-0.65104 -9.37907,-0.97656 -18.61572,-0.97656 -7.12077,0 -13.20394,0.38656 -18.24951,1.15967 -5.04557,0.73242 -9.37907,1.83105 -13.00049,3.29589 -3.58073,1.42415 -6.8156,3.0721 -9.70459,4.94385 -2.84831,1.87175 -7.44629,5.06592 -13.79395,9.58252 z m 51.02539,16.11328 c 0,1.50553 0.50863,2.6652 1.52588,3.47901 1.01725,0.77311 2.52279,1.52587 4.5166,2.2583 2.03451,0.69173 3.5197,1.28173 4.45557,1.77002 1.13932,0.61035 2.48209,1.32242 4.02832,2.13623 1.54623,0.8138 2.92969,1.40381 4.15039,1.77002 1.22071,0.36621 2.60417,0.56966 4.15039,0.61035 4.15039,0 7.38526,-0.30518 9.70459,-0.91553 2.36003,-0.61035 4.00798,-2.17692 4.94385,-4.69971 0.24414,-0.61035 0.36621,-1.15966 0.36621,-1.64795 0,-1.01725 -0.50863,-1.70898 -1.52588,-2.07519 -0.97656,-0.36621 -2.46175,-0.54932 -4.45557,-0.54932 -0.85449,0 -2.25829,0.0407 -4.21142,0.12207 -1.95313,0.0814 -3.41797,0.12207 -4.39453,0.12207 -2.4821,0 -4.49626,-0.28483 -6.04248,-0.85449 -0.69173,-0.32552 -1.20036,-0.79346 -1.52588,-1.40381 -0.32552,-0.61035 -0.67139,-1.24104 -1.0376,-1.89209 -0.36621,-0.69173 -0.87484,-1.2207 -1.52588,-1.58691 -1.83105,-1.01725 -3.80452,-1.52588 -5.92041,-1.52588 -1.87175,0 -3.49935,0.4069 -4.88281,1.2207 -1.38347,0.81381 -2.15658,2.03451 -2.31934,3.66211 z m -4.88281,10.13184 c -0.69173,0.44759 -1.0376,0.95621 -1.0376,1.52588 0,0.77311 0.59001,1.50553 1.77002,2.19726 1.22071,0.69173 3.1128,1.56657 5.67627,2.62451 2.56348,1.05795 4.04867,1.68864 4.45557,1.89209 1.70898,0.89519 3.15348,1.6683 4.33349,2.31934 1.22071,0.65104 2.33969,1.15967 3.35694,1.52588 1.05794,0.36621 2.19726,0.54932 3.41797,0.54932 0.44759,0 1.24104,-0.0814 2.38037,-0.24415 0.48828,-0.12207 1.09863,-0.24414 1.83105,-0.36621 0.77311,-0.12207 1.40381,-0.28483 1.89209,-0.48828 0.52897,-0.24414 1.0376,-0.71208 1.52588,-1.40381 0.4069,-0.52897 0.61035,-1.03759 0.61035,-1.52587 0,-0.97657 -1.95312,-1.46485 -5.85937,-1.46485 -1.79037,0 -3.33659,-0.12207 -4.63867,-0.36621 -1.30209,-0.28483 -2.99073,-0.77311 -5.06592,-1.46484 -2.03451,-0.69173 -3.17383,-1.07829 -3.41797,-1.15967 -0.89518,-0.32552 -2.38037,-1.2207 -4.45557,-2.68555 -2.07519,-1.46484 -3.62142,-2.19726 -4.63867,-2.19726 -0.85449,0 -1.56657,0.24414 -2.13623,0.73242 z m -4.5166,10.13183 c -0.65104,1.05795 -0.97656,1.85141 -0.97656,2.38038 0,0.93587 0.42724,1.64794 1.28173,2.13623 0.89519,0.44759 2.299,0.97656 4.21143,1.58691 1.95313,0.61035 3.31625,1.20036 4.08936,1.77002 3.13313,2.03451 5.43212,3.41797 6.89697,4.15039 1.46484,0.69173 3.41796,1.05794 5.85937,1.09863 0.56967,0 1.46485,0.0407 2.68555,0.12207 1.2207,0.0814 2.15657,0.12207 2.80762,0.12207 3.09245,0 4.63867,-0.95622 4.63867,-2.86865 -0.16276,-1.05794 -0.67139,-1.74967 -1.52588,-2.07519 -0.8138,-0.32553 -2.11588,-0.50863 -3.90625,-0.54932 -1.74967,-0.0814 -2.92969,-0.20345 -3.54004,-0.36621 -1.01725,-0.0814 -2.60417,-0.12207 -4.76074,-0.12207 -1.58691,0 -2.62451,-0.46794 -3.11279,-1.40381 -0.73243,-1.13932 -1.34278,-1.89209 -1.83106,-2.2583 -0.44759,-0.36621 -1.0376,-0.65104 -1.77002,-0.85449 -0.69173,-0.20345 -1.24105,-0.40691 -1.64795,-0.61036 -3.74349,-1.91243 -6.368,-2.86865 -7.87353,-2.86865 -0.69173,0 -1.20036,0.20345 -1.52588,0.61035 z"
           id="path4785"
           style="stroke:none;stroke-width:0.9873144" />
      </g>
      <g
         style="font-style:normal;font-variant:normal;font-weight:bold;font-stretch:normal;font-size:50px;line-height:100%;font-family:sans-serif;-inkscape-font-specification:'sans-serif Bold';text-align:center;writing-mode:lr-tb;text-anchor:middle;opacity:1;fill:#000000;fill-opacity:1;stroke:none;stroke-width:2;stroke-linecap:butt;stroke-miterlimit:4;stroke-dasharray:none;stroke-opacity:1"
         id="text4795"
         transform="translate(60.372772,0.2919166)">
        <path
           d="m 716.39984,587.52393 0,7.71484 q -3.00293,-1.34277 -5.85937,-2.02637 -2.85645,-0.68359 -5.39551,-0.68359 -3.36914,0 -4.98047,0.92773 -1.61133,0.92774 -1.61133,2.88086 0,1.46485 1.07422,2.29492 1.09863,0.80567 3.95508,1.39161 l 4.0039,0.80566 q 6.07911,1.2207 8.64258,3.71094 2.56348,2.49023 2.56348,7.08008 0,6.03027 -3.58887,8.98437 -3.56445,2.92969 -10.91308,2.92969 -3.4668,0 -6.95801,-0.65918 -3.49121,-0.65918 -6.98242,-1.95313 l 0,-7.93457 q 3.49121,1.85547 6.73828,2.80762 3.27148,0.92773 6.29883,0.92773 3.07617,0 4.71191,-1.02539 1.63574,-1.02539 1.63574,-2.92968 0,-1.70899 -1.12304,-2.63672 -1.09864,-0.92774 -4.41895,-1.66016 l -3.6377,-0.80566 q -5.46875,-1.17188 -8.00781,-3.73535 -2.51465,-2.56348 -2.51465,-6.90918 0,-5.44434 3.51563,-8.37403 3.51562,-2.92968 10.10742,-2.92968 3.00293,0 6.17676,0.46386 3.17383,0.43946 6.56738,1.34278 z"
           id="path4843" />
        <path
           d="m 738.93402,610.52197 q -2.73437,0 -4.12598,0.92774 -1.36718,0.92773 -1.36718,2.73437 0,1.66016 1.09863,2.61231 1.12305,0.92773 3.10059,0.92773 2.46582,0 4.15039,-1.75781 1.68457,-1.78223 1.68457,-4.44336 l 0,-1.00098 -4.54102,0 z m 13.35449,-3.2959 0,15.60059 -8.81347,0 0,-4.05273 q -1.75782,2.49023 -3.95508,3.63769 -2.19727,1.12305 -5.34668,1.12305 -4.24805,0 -6.90918,-2.46582 -2.63672,-2.49024 -2.63672,-6.44531 0,-4.80958 3.2959,-7.05567 3.32031,-2.24609 10.40039,-2.24609 l 5.15137,0 0,-0.6836 q 0,-2.07519 -1.63575,-3.02734 -1.63574,-0.97656 -5.10253,-0.97656 -2.80762,0 -5.22461,0.56152 -2.417,0.56152 -4.49219,1.68457 l 0,-6.66504 q 2.80762,-0.68359 5.63965,-1.02539 2.83203,-0.36621 5.66406,-0.36621 7.39746,0 10.66894,2.92969 3.2959,2.90527 3.2959,9.47265 z"
           id="path4845" />
        <path
           d="m 778.46039,584.83838 0,5.7373 -4.83399,0 q -1.85546,0 -2.58789,0.6836 -0.73242,0.65918 -0.73242,2.31933 l 0,1.9043 7.4707,0 0,6.25 -7.4707,0 0,21.09375 -8.74023,0 0,-21.09375 -4.34571,0 0,-6.25 4.34571,0 0,-1.9043 q 0,-4.46777 2.49023,-6.59179 2.49024,-2.14844 7.71485,-2.14844 l 6.68945,0 z"
           id="path4847" />
        <path
           d="m 809.53949,609.08154 0,2.49024 -20.43457,0 q 0.31738,3.07617 2.22168,4.61426 1.9043,1.53808 5.32226,1.53808 2.75879,0 5.63965,-0.80566 2.90528,-0.83008 5.95703,-2.49024 l 0,6.73828 q -3.10058,1.17188 -6.20117,1.75782 -3.10058,0.61035 -6.20117,0.61035 -7.42187,0 -11.54785,-3.75977 -4.10156,-3.78418 -4.10156,-10.5957 0,-6.68945 4.02832,-10.52246 4.05273,-3.83301 11.13281,-3.83301 6.44531,0 10.30273,3.88184 3.88184,3.88183 3.88184,10.37597 z m -8.98438,-2.90527 q 0,-2.49023 -1.46484,-4.00391 -1.44043,-1.53808 -3.78418,-1.53808 -2.53906,0 -4.12598,1.44043 -1.58691,1.41601 -1.97753,4.10156 l 11.35253,0 z"
           id="path4849" />
        <path
           d="m 825.67719,587.71924 0,7.76367 9.00878,0 0,6.25 -9.00878,0 0,11.59668 q 0,1.9043 0.75683,2.58789 0.75684,0.65918 3.00293,0.65918 l 4.49219,0 0,6.25 -7.49512,0 q -5.17578,0 -7.34863,-2.14844 -2.14844,-2.17285 -2.14844,-7.34863 l 0,-11.59668 -4.3457,0 0,-6.25 4.3457,0 0,-7.76367 8.74024,0 z"
           id="path4851" />
        <path
           d="m 836.4682,595.48291 8.74024,0 7.34863,18.55469 6.25,-18.55469 8.74023,0 -11.49902,29.93164 q -1.7334,4.56543 -4.05274,6.37207 -2.29492,1.83106 -6.0791,1.83106 l -5.05371,0 0,-5.73731 2.73438,0 q 2.22168,0 3.22265,-0.70801 1.02539,-0.708 1.58692,-2.53906 l 0.24414,-0.75684 -12.18262,-28.39355 z"
           id="path4853" />
        <path
           d="m 721.33148,637.52393 0,7.71484 q -3.00293,-1.34277 -5.85937,-2.02637 -2.85645,-0.68359 -5.39551,-0.68359 -3.36914,0 -4.98047,0.92773 -1.61133,0.92774 -1.61133,2.88086 0,1.46485 1.07422,2.29492 1.09863,0.80567 3.95508,1.39161 l 4.00391,0.80566 q 6.0791,1.2207 8.64257,3.71094 2.56348,2.49023 2.56348,7.08008 0,6.03027 -3.58887,8.98437 -3.56445,2.92969 -10.91308,2.92969 -3.4668,0 -6.95801,-0.65918 -3.49121,-0.65918 -6.98242,-1.95313 l 0,-7.93457 q 3.49121,1.85547 6.73828,2.80762 3.27148,0.92773 6.29883,0.92773 3.07617,0 4.71191,-1.02539 1.63574,-1.02539 1.63574,-2.92968 0,-1.70899 -1.12304,-2.63672 -1.09864,-0.92774 -4.41895,-1.66016 l -3.63769,-0.80566 q -5.46875,-1.17188 -8.00782,-3.73535 -2.51465,-2.56348 -2.51465,-6.90918 0,-5.44434 3.51563,-8.37403 3.51562,-2.92968 10.10742,-2.92968 3.00293,0 6.17676,0.46386 3.17383,0.43946 6.56738,1.34278 z"
           id="path4855" />
        <path
           d="m 741.1557,637.71924 0,7.76367 9.00879,0 0,6.25 -9.00879,0 0,11.59668 q 0,1.9043 0.75684,2.58789 0.75683,0.65918 3.00293,0.65918 l 4.49218,0 0,6.25 -7.49511,0 q -5.17578,0 -7.34864,-2.14844 -2.14843,-2.17285 -2.14843,-7.34863 l 0,-11.59668 -4.34571,0 0,-6.25 4.34571,0 0,-7.76367 8.74023,0 z"
           id="path4857" />
        <path
           d="m 767.79144,660.52197 q -2.73437,0 -4.12597,0.92774 -1.36719,0.92773 -1.36719,2.73437 0,1.66016 1.09863,2.61231 1.12305,0.92773 3.10059,0.92773 2.46582,0 4.15039,-1.75781 1.68457,-1.78223 1.68457,-4.44336 l 0,-1.00098 -4.54102,0 z m 13.3545,-3.2959 0,15.60059 -8.81348,0 0,-4.05273 q -1.75781,2.49023 -3.95508,3.63769 -2.19727,1.12305 -5.34668,1.12305 -4.24805,0 -6.90918,-2.46582 -2.63672,-2.49024 -2.63672,-6.44531 0,-4.80958 3.2959,-7.05567 3.32031,-2.24609 10.40039,-2.24609 l 5.15137,0 0,-0.6836 q 0,-2.07519 -1.63574,-3.02734 -1.63575,-0.97656 -5.10254,-0.97656 -2.80762,0 -5.22461,0.56152 -2.41699,0.56152 -4.49219,1.68457 l 0,-6.66504 q 2.80762,-0.68359 5.63965,-1.02539 2.83203,-0.36621 5.66406,-0.36621 7.39746,0 10.66895,2.92969 3.2959,2.90527 3.2959,9.47265 z"
           id="path4859" />
        <path
           d="m 809.63715,652.9292 q -1.14746,-0.53711 -2.29493,-0.78125 -1.12304,-0.26856 -2.2705,-0.26856 -3.36914,0 -5.2002,2.17286 -1.80664,2.14843 -1.80664,6.17675 l 0,12.59766 -8.74023,0 0,-27.34375 8.74023,0 0,4.49219 q 1.68457,-2.68555 3.85742,-3.90625 2.19727,-1.24512 5.24903,-1.24512 0.43945,0 0.95214,0.0488 0.5127,0.0244 1.48926,0.14648 l 0.0244,7.91016 z"
           id="path4861" />
        <path
           d="m 823.57758,637.71924 0,7.76367 9.00878,0 0,6.25 -9.00878,0 0,11.59668 q 0,1.9043 0.75683,2.58789 0.75684,0.65918 3.00293,0.65918 l 4.49219,0 0,6.25 -7.49512,0 q -5.17578,0 -7.34863,-2.14844 -2.14844,-2.17285 -2.14844,-7.34863 l 0,-11.59668 -4.3457,0 0,-6.25 4.3457,0 0,-7.76367 8.74024,0 z"
           id="path4863" />
        <path
           d="m 859.31976,646.3374 0,6.64063 q -2.80761,-1.17188 -5.41992,-1.75782 -2.6123,-0.58593 -4.93164,-0.58593 -2.49023,0 -3.71094,0.63476 -1.19629,0.61035 -1.19629,1.9043 0,1.0498 0.90332,1.61133 0.92774,0.56152 3.2959,0.83008 l 1.53809,0.21972 q 6.71387,0.85449 9.0332,2.80762 2.31934,1.95312 2.31934,6.12793 0,4.37012 -3.22266,6.56738 -3.22265,2.19727 -9.61914,2.19727 -2.70996,0 -5.61523,-0.43946 -2.88086,-0.41503 -5.93262,-1.26953 l 0,-6.64062 q 2.6123,1.26953 5.34668,1.9043 2.75879,0.63476 5.59082,0.63476 2.56348,0 3.85742,-0.70801 1.29395,-0.708 1.29395,-2.09961 0,-1.17187 -0.90332,-1.73339 -0.87891,-0.58594 -3.54004,-0.90332 l -1.53809,-0.19532 q -5.83496,-0.73242 -8.17871,-2.70996 -2.34375,-1.97754 -2.34375,-6.00586 0,-4.3457 2.97852,-6.44531 2.97851,-2.09961 9.13086,-2.09961 2.41699,0 5.07812,0.36621 2.66113,0.36621 5.78613,1.14746 z"
           id="path4865" />
        <path
           d="m 714.86176,686.37646 9.39941,0 0,13.89161 13.86719,0 0,-13.89161 9.39941,0 0,36.4502 -9.39941,0 0,-15.4541 -13.86719,0 0,15.4541 -9.39941,0 0,-36.4502 z"
           id="path4867" />
        <path
           d="m 783.66058,709.08154 0,2.49024 -20.43457,0 q 0.31739,3.07617 2.22168,4.61426 1.9043,1.53808 5.32227,1.53808 2.75879,0 5.63965,-0.80566 2.90527,-0.83008 5.95703,-2.49024 l 0,6.73828 q -3.10059,1.17188 -6.20117,1.75782 -3.10059,0.61035 -6.20118,0.61035 -7.42187,0 -11.54785,-3.75977 -4.10156,-3.78418 -4.10156,-10.5957 0,-6.68945 4.02832,-10.52246 4.05274,-3.83301 11.13281,-3.83301 6.44532,0 10.30274,3.88184 3.88183,3.88183 3.88183,10.37597 z m -8.98437,-2.90527 q 0,-2.49023 -1.46485,-4.00391 -1.44042,-1.53808 -3.78417,-1.53808 -2.53907,0 -4.12598,1.44043 -1.58692,1.41601 -1.97754,4.10156 l 11.35254,0 z"
           id="path4869" />
        <path
           d="m 810.56488,702.9292 q -1.14746,-0.53711 -2.29492,-0.78125 -1.12305,-0.26856 -2.27051,-0.26856 -3.36914,0 -5.20019,2.17286 -1.80665,2.14843 -1.80665,6.17675 l 0,12.59766 -8.74023,0 0,-27.34375 8.74023,0 0,4.49219 q 1.68458,-2.68555 3.85743,-3.90625 2.19726,-1.24512 5.24902,-1.24512 0.43945,0 0.95215,0.0488 0.51269,0.0244 1.48926,0.14648 l 0.0244,7.91016 z"
           id="path4871" />
        <path
           d="m 842.25433,709.08154 0,2.49024 -20.43457,0 q 0.31739,3.07617 2.22168,4.61426 1.9043,1.53808 5.32227,1.53808 2.75879,0 5.63965,-0.80566 2.90527,-0.83008 5.95703,-2.49024 l 0,6.73828 q -3.10059,1.17188 -6.20117,1.75782 -3.10059,0.61035 -6.20118,0.61035 -7.42187,0 -11.54785,-3.75977 -4.10156,-3.78418 -4.10156,-10.5957 0,-6.68945 4.02832,-10.52246 4.05274,-3.83301 11.13281,-3.83301 6.44532,0 10.30274,3.88184 3.88183,3.88183 3.88183,10.37597 z m -8.98437,-2.90527 q 0,-2.49023 -1.46485,-4.00391 -1.44042,-1.53808 -3.78417,-1.53808 -2.53907,0 -4.12598,1.44043 -1.58692,1.41601 -1.97754,4.10156 l 11.35254,0 z"
           id="path4873" />
      </g>
    </g>
    <g
       transform="translate(22.287007,-13.184863)"
       id="text4830"
       style="font-style:normal;font-variant:normal;font-weight:normal;font-stretch:normal;font-size:80px;line-height:125%;font-family:sans-serif;-inkscape-font-specification:sans-serif;text-align:center;writing-mode:lr-tb;text-anchor:middle;opacity:1;fill:#000000;fill-opacity:1;stroke:none;stroke-width:2;stroke-linecap:butt;stroke-miterlimit:4;stroke-dasharray:none;stroke-opacity:1">
      <path
         id="path4876"
         style="line-height:125%"
         d="m 422.92633,766.388 49.33594,0 0,6.64063 -20.70313,0 0,51.67968 -7.92968,0 0,-51.67968 -20.70313,0 0,-6.64063 z" />
      <path
         id="path4878"
         style="line-height:125%"
         d="m 515.97321,798.30206 0,26.40625 -7.1875,0 0,-26.17187 q 0,-6.21094 -2.42188,-9.29688 -2.42187,-3.08593 -7.26562,-3.08593 -5.82032,0 -9.17969,3.71093 -3.35938,3.71094 -3.35938,10.11719 l 0,24.72656 -7.22656,0 0,-60.78125 7.22656,0 0,23.82813 q 2.57813,-3.94531 6.05469,-5.89844 3.51563,-1.95312 8.08594,-1.95312 7.53906,0 11.40625,4.6875 3.86719,4.64843 3.86719,13.71093 z" />
      <path
         id="path4880"
         style="line-height:125%"
         d="m 530.38727,780.95831 7.1875,0 0,43.75 -7.1875,0 0,-43.75 z m 0,-17.03125 7.1875,0 0,9.10157 -7.1875,0 0,-9.10157 z" />
      <path
         id="path4882"
         style="line-height:125%"
         d="m 588.94196,798.30206 0,26.40625 -7.1875,0 0,-26.17187 q 0,-6.21094 -2.42188,-9.29688 -2.42187,-3.08593 -7.26562,-3.08593 -5.82032,0 -9.17969,3.71093 -3.35938,3.71094 -3.35938,10.11719 l 0,24.72656 -7.22656,0 0,-43.75 7.22656,0 0,6.79688 q 2.57813,-3.94531 6.05469,-5.89844 3.51563,-1.95312 8.08594,-1.95312 7.53906,0 11.40625,4.6875 3.86719,4.64843 3.86719,13.71093 z" />
      <path
         id="path4884"
         style="line-height:125%"
         d="m 603.08258,763.92706 7.22656,0 0,35.89844 21.44532,-18.86719 9.17968,0 -23.20312,20.46875 24.17969,23.28125 -9.375,0 -22.22657,-21.36718 0,21.36718 -7.22656,0 0,-60.78125 z" />
      <path
         id="path4886"
         style="line-height:125%"
         d="m 710.50446,768.30206 0,7.69532 q -4.49219,-2.14844 -8.47657,-3.20313 -3.98437,-1.05469 -7.69531,-1.05469 -6.44531,0 -9.96094,2.5 -3.47656,2.5 -3.47656,7.10938 0,3.86719 2.30469,5.85937 2.34375,1.95313 8.82812,3.16407 l 4.76563,0.97656 q 8.82812,1.67969 13.00781,5.9375 4.21875,4.21875 4.21875,11.32812 0,8.47657 -5.70312,12.85157 -5.66407,4.375 -16.64063,4.375 -4.14062,0 -8.82812,-0.9375 -4.64844,-0.9375 -9.64844,-2.77344 l 0,-8.125 q 4.80469,2.69531 9.41406,4.0625 4.60938,1.36719 9.0625,1.36719 6.75781,0 10.42969,-2.65625 3.67187,-2.65625 3.67187,-7.57813 0,-4.29687 -2.65625,-6.71875 -2.61718,-2.42187 -8.63281,-3.63281 l -4.80469,-0.9375 q -8.82812,-1.75781 -12.77343,-5.50781 -3.94532,-3.75 -3.94532,-10.42969 0,-7.73438 5.42969,-12.1875 5.46875,-4.45313 15.03906,-4.45313 4.10157,0 8.35938,0.74219 4.25781,0.74219 8.71094,2.22656 z" />
      <path
         id="path4888"
         style="line-height:125%"
         d="m 745.89508,802.71613 q -8.71094,0 -12.07031,1.99218 -3.35938,1.99219 -3.35938,6.79688 0,3.82812 2.5,6.09375 2.53907,2.22656 6.875,2.22656 5.97657,0 9.57032,-4.21875 3.63281,-4.25781 3.63281,-11.28906 l 0,-1.60156 -7.14844,0 z m 14.33594,-2.96875 0,24.96093 -7.1875,0 0,-6.64062 q -2.46094,3.98437 -6.13281,5.89844 -3.67188,1.875 -8.98438,1.875 -6.71875,0 -10.70312,-3.75 -3.94532,-3.78907 -3.94532,-10.11719 0,-7.38281 4.92188,-11.13281 4.96094,-3.75 14.76562,-3.75 l 10.07813,0 0,-0.70313 q 0,-4.96094 -3.28125,-7.65625 -3.24219,-2.73437 -9.14063,-2.73437 -3.75,0 -7.30468,0.89843 -3.55469,0.89844 -6.83594,2.69532 l 0,-6.64063 q 3.94531,-1.52344 7.65625,-2.26562 3.71094,-0.78125 7.22656,-0.78125 9.49219,0 14.17969,4.92187 4.6875,4.92188 4.6875,14.92188 z" />
      <path
         id="path4890"
         style="line-height:125%"
         d="m 797.22321,763.92706 0,5.97657 -6.875,0 q -3.86719,0 -5.39063,1.5625 -1.48437,1.5625 -1.48437,5.625 l 0,3.86718 11.83593,0 0,5.58594 -11.83593,0 0,38.16406 -7.22657,0 0,-38.16406 -6.875,0 0,-5.58594 6.875,0 0,-3.04687 q 0,-7.30469 3.39844,-10.625 3.39844,-3.35938 10.78125,-3.35938 l 6.79688,0 z" />
      <path
         id="path4892"
         style="line-height:125%"
         d="m 840.62164,801.03644 0,3.51562 -33.04687,0 q 0.46875,7.42188 4.45312,11.32813 4.02344,3.86719 11.17188,3.86719 4.14062,0 8.00781,-1.01563 3.90625,-1.01562 7.73438,-3.04687 l 0,6.79687 q -3.86719,1.64063 -7.92969,2.5 -4.0625,0.85938 -8.24219,0.85938 -10.46875,0 -16.60156,-6.09375 -6.09375,-6.09375 -6.09375,-16.48438 0,-10.74219 5.78125,-17.03125 5.82031,-6.32812 15.66406,-6.32812 8.82813,0 13.94531,5.70312 5.15625,5.66406 5.15625,15.42969 z m -7.1875,-2.10938 q -0.0781,-5.89843 -3.32031,-9.41406 -3.20312,-3.51562 -8.51562,-3.51562 -6.01563,0 -9.64844,3.39843 -3.59375,3.39844 -4.14063,9.57032 l 25.625,-0.0391 z" />
      <path
         id="path4894"
         style="line-height:125%"
         d="m 853.43414,814.78644 8.24219,0 0,9.92187 -8.24219,0 0,-9.92187 z" />
      <path
         id="path4896"
         style="line-height:125%"
         d="m 878.90289,814.78644 8.24219,0 0,9.92187 -8.24219,0 0,-9.92187 z" />
      <path
         id="path4898"
         style="line-height:125%"
         d="m 904.37164,814.78644 8.24219,0 0,9.92187 -8.24219,0 0,-9.92187 z" />
      <path
         id="path4900"
         style="line-height:125%"
         d="m 434.02008,866.388 7.96875,0 12.26563,49.29688 12.22656,-49.29688 8.86719,0 12.26562,49.29688 12.22656,-49.29688 8.00782,0 -14.64844,58.32031 -9.92188,0 -12.30468,-50.625 -12.42188,50.625 -9.92187,0 -14.60938,-58.32031 z" />
      <path
         id="path4902"
         style="line-height:125%"
         d="m 530.23102,885.99738 q -5.78125,0 -9.14063,4.53125 -3.35937,4.49218 -3.35937,12.34375 0,7.85156 3.32031,12.38281 3.35938,4.49219 9.17969,4.49219 5.74219,0 9.10156,-4.53125 3.35938,-4.53125 3.35938,-12.34375 0,-7.77344 -3.35938,-12.30469 -3.35937,-4.57031 -9.10156,-4.57031 z m 0,-6.09375 q 9.375,0 14.72656,6.09375 5.35156,6.09375 5.35156,16.875 0,10.74218 -5.35156,16.875 -5.35156,6.09375 -14.72656,6.09375 -9.41406,0 -14.76563,-6.09375 -5.3125,-6.13282 -5.3125,-16.875 0,-10.78125 5.3125,-16.875 5.35157,-6.09375 14.76563,-6.09375 z" />
      <path
         id="path4904"
         style="line-height:125%"
         d="m 587.53571,887.67706 q -1.21094,-0.70312 -2.65625,-1.01562 -1.40625,-0.35156 -3.125,-0.35156 -6.09375,0 -9.375,3.98437 -3.24219,3.94531 -3.24219,11.36719 l 0,23.04687 -7.22656,0 0,-43.75 7.22656,0 0,6.79688 q 2.26562,-3.98438 5.89844,-5.89844 3.63281,-1.95312 8.82812,-1.95312 0.74219,0 1.64063,0.11718 0.89843,0.0781 1.99218,0.27344 l 0.0391,7.38281 z" />
      <path
         id="path4906"
         style="line-height:125%"
         d="m 594.87946,863.92706 7.22656,0 0,35.89844 21.44531,-18.86719 9.17969,0 -23.20313,20.46875 24.17969,23.28125 -9.375,0 -22.22656,-21.36718 0,21.36718 -7.22656,0 0,-60.78125 z" />
      <path
         id="path4908"
         style="line-height:125%"
         d="m 702.30133,868.30206 0,7.69532 q -4.49219,-2.14844 -8.47656,-3.20313 -3.98438,-1.05469 -7.69531,-1.05469 -6.44532,0 -9.96094,2.5 -3.47656,2.5 -3.47656,7.10938 0,3.86719 2.30468,5.85937 2.34375,1.95313 8.82813,3.16407 l 4.76562,0.97656 q 8.82813,1.67969 13.00782,5.9375 4.21875,4.21875 4.21875,11.32812 0,8.47657 -5.70313,12.85157 -5.66406,4.375 -16.64062,4.375 -4.14063,0 -8.82813,-0.9375 -4.64844,-0.9375 -9.64844,-2.77344 l 0,-8.125 q 4.80469,2.69531 9.41407,4.0625 4.60937,1.36719 9.0625,1.36719 6.75781,0 10.42968,-2.65625 3.67188,-2.65625 3.67188,-7.57813 0,-4.29687 -2.65625,-6.71875 -2.61719,-2.42187 -8.63281,-3.63281 l -4.80469,-0.9375 q -8.82813,-1.75781 -12.77344,-5.50781 -3.94531,-3.75 -3.94531,-10.42969 0,-7.73438 5.42969,-12.1875 5.46875,-4.45313 15.03906,-4.45313 4.10156,0 8.35937,0.74219 4.25782,0.74219 8.71094,2.22656 z" />
      <path
         id="path4910"
         style="line-height:125%"
         d="m 737.69196,902.71613 q -8.71094,0 -12.07032,1.99218 -3.35937,1.99219 -3.35937,6.79688 0,3.82812 2.5,6.09375 2.53906,2.22656 6.875,2.22656 5.97656,0 9.57031,-4.21875 3.63281,-4.25781 3.63281,-11.28906 l 0,-1.60156 -7.14843,0 z m 14.33593,-2.96875 0,24.96093 -7.1875,0 0,-6.64062 q -2.46093,3.98437 -6.13281,5.89844 -3.67187,1.875 -8.98437,1.875 -6.71875,0 -10.70313,-3.75 -3.94531,-3.78907 -3.94531,-10.11719 0,-7.38281 4.92187,-11.13281 4.96094,-3.75 14.76563,-3.75 l 10.07812,0 0,-0.70313 q 0,-4.96094 -3.28125,-7.65625 -3.24218,-2.73437 -9.14062,-2.73437 -3.75,0 -7.30469,0.89843 -3.55469,0.89844 -6.83594,2.69532 l 0,-6.64063 q 3.94532,-1.52344 7.65625,-2.26562 3.71094,-0.78125 7.22657,-0.78125 9.49218,0 14.17968,4.92187 4.6875,4.92188 4.6875,14.92188 z" />
      <path
         id="path4912"
         style="line-height:125%"
         d="m 789.02008,863.92706 0,5.97657 -6.875,0 q -3.86719,0 -5.39062,1.5625 -1.48438,1.5625 -1.48438,5.625 l 0,3.86718 11.83594,0 0,5.58594 -11.83594,0 0,38.16406 -7.22656,0 0,-38.16406 -6.875,0 0,-5.58594 6.875,0 0,-3.04687 q 0,-7.30469 3.39844,-10.625 3.39843,-3.35938 10.78125,-3.35938 l 6.79687,0 z" />
      <path
         id="path4914"
         style="line-height:125%"
         d="m 832.41852,901.03644 0,3.51562 -33.04688,0 q 0.46875,7.42188 4.45313,11.32813 4.02344,3.86719 11.17187,3.86719 4.14063,0 8.00782,-1.01563 3.90625,-1.01562 7.73437,-3.04687 l 0,6.79687 q -3.86719,1.64063 -7.92969,2.5 -4.0625,0.85938 -8.24218,0.85938 -10.46875,0 -16.60157,-6.09375 -6.09375,-6.09375 -6.09375,-16.48438 0,-10.74219 5.78125,-17.03125 5.82032,-6.32812 15.66407,-6.32812 8.82812,0 13.94531,5.70312 5.15625,5.66406 5.15625,15.42969 z m -7.1875,-2.10938 q -0.0781,-5.89843 -3.32031,-9.41406 -3.20313,-3.51562 -8.51563,-3.51562 -6.01562,0 -9.64844,3.39843 -3.59375,3.39844 -4.14062,9.57032 l 25.625,-0.0391 z" />
      <path
         id="path4916"
         style="line-height:125%"
         d="m 845.23102,914.78644 8.24219,0 0,9.92187 -8.24219,0 0,-9.92187 z" />
      <path
         id="path4918"
         style="line-height:125%"
         d="m 870.69977,914.78644 8.24219,0 0,9.92187 -8.24219,0 0,-9.92187 z" />
      <path
         id="path4920"
         style="line-height:125%"
         d="m 896.16852,914.78644 8.24219,0 0,9.92187 -8.24219,0 0,-9.92187 z" />
      <path
         id="path4922"
         style="font-style:normal;font-variant:normal;font-weight:normal;font-stretch:normal;font-size:90px;line-height:125%;font-family:sans-serif;-inkscape-font-specification:sans-serif"
         d="m 517.40387,1003.3428 0,24.0381 14.23828,0 q 7.16309,0 10.59082,-2.9444 3.47168,-2.9882 3.47168,-9.0966 0,-6.1524 -3.47168,-9.0528 -3.42773,-2.9443 -10.59082,-2.9443 l -14.23828,0 z m 0,-26.98243 0,19.7754 13.13965,0 q 6.5039,0 9.66797,-2.417 3.208,-2.46093 3.208,-7.4707 0,-4.96582 -3.208,-7.42676 -3.16407,-2.46094 -9.66797,-2.46094 l -13.13965,0 z m -8.87695,-7.29492 22.67578,0 q 10.15136,0 15.64453,4.21875 5.49316,4.21875 5.49316,11.99707 0,6.02051 -2.8125,9.58008 -2.8125,3.55957 -8.26172,4.43848 6.54786,1.40627 10.15137,5.88867 3.64746,4.4385 3.64746,11.1182 0,8.789 -5.97656,13.5791 -5.97656,4.79 -17.00684,4.79 l -23.55468,0 0,-65.61035 z" />
      <path
         id="path4924"
         style="font-style:normal;font-variant:normal;font-weight:normal;font-stretch:normal;font-size:90px;line-height:125%;font-family:sans-serif;-inkscape-font-specification:sans-serif"
         d="m 611.97418,1008.0449 0,3.9551 -37.17773,0 q 0.52734,8.3496 5.00976,12.7442 4.52637,4.3505 12.56836,4.3505 4.65821,0 9.00879,-1.1425 4.39453,-1.1426 8.70117,-3.4278 l 0,7.6465 q -4.35058,1.8457 -8.92089,2.8125 -4.57032,0.9668 -9.27247,0.9668 -11.77734,0 -18.67675,-6.8555 -6.85547,-6.8554 -6.85547,-18.5449 0,-12.08493 6.5039,-19.16013 6.54786,-7.11914 17.62207,-7.11914 9.93164,0 15.68848,6.41602 5.80078,6.37207 5.80078,17.35835 z m -8.08594,-2.373 q -0.0879,-6.63574 -3.73535,-10.59082 -3.60351,-3.95508 -9.58008,-3.95508 -6.76757,0 -10.85449,3.82324 -4.04297,3.82324 -4.6582,10.76656 l 28.82812,-0.044 z" />
      <path
         id="path4926"
         style="font-style:normal;font-variant:normal;font-weight:normal;font-stretch:normal;font-size:90px;line-height:125%;font-family:sans-serif;-inkscape-font-specification:sans-serif"
         d="m 693.58063,971.21877 0,8.65723 q -5.05371,-2.41699 -9.53614,-3.60352 -4.48242,-1.18652 -8.65722,-1.18652 -7.25098,0 -11.20606,2.8125 -3.91113,2.8125 -3.91113,7.99805 0,4.35058 2.59277,6.59179 2.63672,2.19727 9.93164,3.55957 l 5.36133,1.09864 q 9.93164,1.88965 14.63379,6.67969 4.7461,4.7461 4.7461,12.7441 0,9.5362 -6.41602,14.458 -6.37207,4.9219 -18.7207,4.9219 -4.65821,0 -9.93164,-1.0547 -5.2295,-1.0547 -10.8545,-3.1201 l 0,-9.1406 q 5.40528,3.0322 10.59082,4.5703 5.18555,1.5381 10.19532,1.5381 7.60254,0 11.7334,-2.9883 4.13085,-2.9883 4.13085,-8.5254 0,-4.834 -2.98828,-7.5586 -2.94433,-2.7246 -9.71191,-4.0869 l -5.40527,-1.0547 q -9.93164,-1.9775 -14.37012,-6.19627 -4.43848,-4.21875 -4.43848,-11.7334 0,-8.70117 6.1084,-13.71093 6.15234,-5.00977 16.91895,-5.00977 4.61425,0 9.40429,0.83496 4.79004,0.83496 9.79981,2.50488 z" />
      <path
         id="path4928"
         style="font-style:normal;font-variant:normal;font-weight:normal;font-stretch:normal;font-size:90px;line-height:125%;font-family:sans-serif;-inkscape-font-specification:sans-serif"
         d="m 733.39508,1009.9346 q -9.7998,0 -13.5791,2.2412 -3.7793,2.2412 -3.7793,7.6465 0,4.3066 2.8125,6.8555 2.85645,2.5048 7.73438,2.5048 6.72363,0 10.7666,-4.7461 4.08691,-4.79 4.08691,-12.7001 l 0,-1.8018 -8.04199,0 z m 16.12793,-3.3399 0,28.0811 -8.08594,0 0,-7.4707 q -2.76855,4.4824 -6.89941,6.6357 -4.13086,2.1094 -10.10742,2.1094 -7.5586,0 -12.04102,-4.2187 -4.43848,-4.2627 -4.43848,-11.3819 0,-8.3056 5.53711,-12.5244 5.58106,-4.2187 16.61133,-4.2187 l 11.33789,0 0,-0.791 q 0,-5.5811 -3.6914,-8.61333 -3.64746,-3.07617 -10.28321,-3.07617 -4.21875,0 -8.21777,1.01074 -3.99902,1.01074 -7.69043,3.03223 l 0,-7.4707 q 4.43848,-1.71387 8.61328,-2.54883 4.17481,-0.87891 8.12988,-0.87891 10.67872,0 15.95215,5.53711 5.27344,5.53711 5.27344,16.78706 z" />
      <path
         id="path4930"
         style="font-style:normal;font-variant:normal;font-weight:normal;font-stretch:normal;font-size:90px;line-height:125%;font-family:sans-serif;-inkscape-font-specification:sans-serif"
         d="m 791.13922,966.2969 0,6.72363 -7.73437,0 q -4.35059,0 -6.06446,1.75781 -1.66992,1.75782 -1.66992,6.32813 l 0,4.35058 13.31543,0 0,6.28418 -13.31543,0 0,42.93457 -8.12988,0 0,-42.93457 -7.73438,0 0,-6.28418 7.73438,0 0,-3.42773 q 0,-8.21777 3.82324,-11.95312 3.82324,-3.7793 12.12891,-3.7793 l 7.64648,0 z" />
      <path
         id="path4932"
         style="font-style:normal;font-variant:normal;font-weight:normal;font-stretch:normal;font-size:90px;line-height:125%;font-family:sans-serif;-inkscape-font-specification:sans-serif"
         d="m 839.96246,1008.0449 0,3.9551 -37.17773,0 q 0.52734,8.3496 5.00976,12.7442 4.52637,4.3505 12.56836,4.3505 4.65821,0 9.00879,-1.1425 4.39453,-1.1426 8.70117,-3.4278 l 0,7.6465 q -4.35058,1.8457 -8.92089,2.8125 -4.57032,0.9668 -9.27246,0.9668 -11.77735,0 -18.67676,-6.8555 -6.85547,-6.8554 -6.85547,-18.5449 0,-12.08493 6.50391,-19.16013 6.54785,-7.11914 17.62207,-7.11914 9.93164,0 15.68847,6.41602 5.80078,6.37207 5.80078,17.35835 z m -8.08593,-2.373 q -0.0879,-6.63574 -3.73536,-10.59082 -3.60351,-3.95508 -9.58007,-3.95508 -6.76758,0 -10.8545,3.82324 -4.04296,3.82324 -4.6582,10.76656 l 28.82813,-0.044 z" />
    </g>
    <text
       id="text4838"
       y="886.99097"
       x="811.82227"
       style="font-style:normal;font-variant:normal;font-weight:normal;font-stretch:normal;font-size:80px;line-height:125%;font-family:sans-serif;-inkscape-font-specification:sans-serif;text-align:center;writing-mode:lr-tb;text-anchor:middle;opacity:1;fill:#000000;fill-opacity:1;stroke:none;stroke-width:2;stroke-linecap:butt;stroke-miterlimit:4;stroke-dasharray:none;stroke-opacity:1"
       xml:space="preserve"><tspan
         y="886.99097"
         x="811.82227"
         id="tspan4840" /></text>
  </g>
</svg>
