<svg xmlns="http://www.w3.org/2000/svg" viewBox="0 0 963.779 143.031"><path d="M77.32 56.383c27.57 0 44.567 15.547 44.567 42.91 0 27.362-16.998 43.738-44.567 43.738H5.803v-30.265h71.1c9.33 0 14.097-6.633 14.097-13.473 0-6.841-4.768-13.474-14.096-13.474H44.568C16.998 85.819 0 69.856 0 43.324 0 16.169 16.998 0 44.568 0h67.37v30.265H44.981c-9.328 0-14.096 6.426-14.096 13.059s4.768 13.06 14.096 13.06H77.32zM220.184 0h38.971l-54.932 70.479 54.932 72.552h-40.422l-44.982-59.7v59.7h-33.167V0h33.167v59.907zm133.288 0h-42.08l-50.164 143.03h34.617l9.536-29.227h54.31l9.535 29.228h34.41L353.473 0zM314.71 84.782l17.62-54.31 17.826 54.31H314.71zm192.365 4.561V0h33.166v143.031h-34.41l-56.798-89.55v89.55h-33.166V0h34.41zm130.386-32.96c27.57 0 44.568 15.547 44.568 42.91 0 27.362-16.998 43.738-44.568 43.738h-71.516v-30.265h71.101c9.328 0 14.096-6.633 14.096-13.473 0-6.841-4.768-13.474-14.096-13.474H604.71c-27.57 0-44.568-15.962-44.568-42.495C560.141 16.169 577.14 0 604.71 0h67.37v30.265h-66.955c-9.328 0-14.096 6.426-14.096 13.059s4.768 13.06 14.095 13.06h32.338zM780.327 0h38.971l-54.932 70.479 54.932 72.552h-40.422l-44.982-59.7v59.7h-33.167V0h33.167v59.907zm133.288 0h-42.08l-50.164 143.03h34.617l9.536-29.227h54.31l9.535 29.228h34.41L913.616 0zm-38.763 84.782 17.62-54.31 17.826 54.31h-35.446z" fill="#143275"/></svg>